<?xml version="1.0" encoding="utf-8"?>
<!-- Generator: Adobe Illustrator 17.1.0, SVG Export Plug-In . SVG Version: 6.00 Build 0)  -->
<!DOCTYPE svg PUBLIC "-//W3C//DTD SVG 1.1//EN" "http://www.w3.org/Graphics/SVG/1.1/DTD/svg11.dtd">
<svg version="1.1" id="Layer_1" xmlns="http://www.w3.org/2000/svg" xmlns:xlink="http://www.w3.org/1999/xlink" x="0px" y="0px"
	 viewBox="0 0 45.3 48.6" enable-background="new 0 0 45.3 48.6" xml:space="preserve">
<g>
	<path fill="#6DBE45" d="M33.2,35.8c7.2-3.2,12.2-9.5,12.2-16.8c0-10.5-10.1-19-22.7-19C10.2,0,0,8.5,0,19c0,10.5,10.2,19,22.7,19
		c0.1,0,0.3,0,0.4,0c3,5.7,10.1,9.9,18.6,10.6C36.6,45.6,33.3,41,33.2,35.8z"/>
	<g>
		<path fill="#FFFFFF" d="M14.4,15.5h3.5l5-3.5v12l-5-3.5h-3.5V15.5z"/>
		<path fill="#FFFFFF" d="M28.6,11.8c-0.2-0.2-0.5-0.2-0.7,0c-0.2,0.2-0.2,0.5,0,0.7C29.2,14,30,16,30,18c0,2-0.7,4-2,5.5
			c-0.2,0.2-0.1,0.5,0,0.7c0.1,0.1,0.2,0.1,0.3,0.1c0.1,0,0.3-0.1,0.4-0.2c1.4-1.7,2.2-3.9,2.2-6.1C30.9,15.8,30.1,13.6,28.6,11.8z"
			/>
		<path fill="#FFFFFF" d="M25.1,14c-0.2,0.2-0.2,0.5,0,0.7c0.9,0.9,1.3,2.1,1.3,3.3c0,1.2-0.4,2.4-1.3,3.3c-0.2,0.2-0.2,0.5,0,0.7
			c0.1,0.1,0.2,0.1,0.3,0.1c0.1,0,0.2,0,0.3-0.2c1-1.1,1.5-2.5,1.5-3.9c0-1.5-0.6-2.9-1.6-4C25.5,13.9,25.3,13.9,25.1,14z"/>
	</g>
</g>
</svg>
