<?xml version="1.0" encoding="utf-8"?>
<!-- Generator: Adobe Illustrator 17.1.0, SVG Export Plug-In . SVG Version: 6.00 Build 0)  -->
<!DOCTYPE svg PUBLIC "-//W3C//DTD SVG 1.1//EN" "http://www.w3.org/Graphics/SVG/1.1/DTD/svg11.dtd">
<svg version="1.1" id="Layer_1" xmlns="http://www.w3.org/2000/svg" xmlns:xlink="http://www.w3.org/1999/xlink" x="0px" y="0px"
	 viewBox="0 0 145.9 145.9" enable-background="new 0 0 145.9 145.9" xml:space="preserve">
<g>
	<g>
		<path fill="#E2E2E2" d="M73,144.9c-39.7,0-72-32.3-72-72C1,33.3,33.3,1,73,1s72,32.3,72,72C144.9,112.7,112.7,144.9,73,144.9z"/>
	</g>
	<g>
		<path fill="#7C7C7C" d="M73,1.5c39.4,0,71.5,32.1,71.5,71.5c0,39.4-32.1,71.5-71.5,71.5c-39.4,0-71.5-32.1-71.5-71.5
			C1.5,33.6,33.6,1.5,73,1.5 M73,0.5C32.9,0.5,0.5,32.9,0.5,73c0,40,32.4,72.5,72.5,72.5c40,0,72.5-32.4,72.5-72.5
			C145.4,32.9,113,0.5,73,0.5L73,0.5z"/>
	</g>
</g>
<path fill="#7C7C7C" d="M83.5,84.5c7.2-3.2,12.2-9.5,12.2-16.8c0-10.5-10.1-19-22.7-19c-12.5,0-22.7,8.5-22.7,19
	c0,10.5,10.2,19,22.7,19c0.1,0,0.3,0,0.4,0c3,5.7,10.1,9.9,18.6,10.6C86.9,94.2,83.6,89.6,83.5,84.5z"/>
<path fill="#E2E2E2" d="M64.7,64.2h3.5l5-3.5v12l-5-3.5h-3.5V64.2z"/>
<path fill="#E2E2E2" d="M78.9,60.5c-0.2-0.2-0.5-0.2-0.7,0c-0.2,0.2-0.2,0.5,0,0.7c1.3,1.5,2.1,3.5,2.1,5.6c0,2-0.7,4-2,5.5
	c-0.2,0.2-0.1,0.5,0,0.7c0.1,0.1,0.2,0.1,0.3,0.1c0.1,0,0.3-0.1,0.4-0.2c1.4-1.7,2.2-3.9,2.2-6.1C81.2,64.4,80.4,62.2,78.9,60.5z"/>
<path fill="#E2E2E2" d="M75.4,62.7c-0.2,0.2-0.2,0.5,0,0.7c0.9,0.9,1.3,2.1,1.3,3.3c0,1.2-0.4,2.4-1.3,3.3c-0.2,0.2-0.2,0.5,0,0.7
	c0.1,0.1,0.2,0.1,0.3,0.1c0.1,0,0.2,0,0.3-0.2c1-1.1,1.5-2.5,1.5-3.9c0-1.5-0.6-2.9-1.6-4C75.9,62.5,75.6,62.5,75.4,62.7z"/>
</svg>
