<?xml version="1.0" encoding="utf-8"?>
<!-- Generator: Adobe Illustrator 17.1.0, SVG Export Plug-In . SVG Version: 6.00 Build 0)  -->
<!DOCTYPE svg PUBLIC "-//W3C//DTD SVG 1.1//EN" "http://www.w3.org/Graphics/SVG/1.1/DTD/svg11.dtd">
<svg version="1.1" id="Layer_1" xmlns="http://www.w3.org/2000/svg" xmlns:xlink="http://www.w3.org/1999/xlink" x="0px" y="0px"
	 viewBox="0 0 145.9 145.9" enable-background="new 0 0 145.9 145.9" xml:space="preserve">
<g>
	<g>
		<path fill="#E2E2E2" d="M73,144.9c-39.7,0-72-32.3-72-72C1,33.3,33.3,1,73,1c39.7,0,72,32.3,72,72
			C144.9,112.7,112.7,144.9,73,144.9z"/>
	</g>
	<g>
		<path fill="#7C7C7C" d="M73,1.5c39.4,0,71.5,32.1,71.5,71.5c0,39.4-32.1,71.5-71.5,71.5S1.5,112.4,1.5,73
			C1.5,33.6,33.6,1.5,73,1.5 M73,0.5C32.9,0.5,0.5,32.9,0.5,73c0,40,32.4,72.5,72.5,72.5c40,0,72.5-32.4,72.5-72.5
			C145.4,32.9,113,0.5,73,0.5L73,0.5z"/>
	</g>
</g>
<path fill="#7C7C7C" d="M73,48.7c-13.4,0-24.3,10.9-24.3,24.3c0,13.4,10.9,24.3,24.3,24.3S97.2,86.4,97.2,73
	C97.2,59.6,86.4,48.7,73,48.7z M55.3,73c0-3.7,1.1-7.1,3.1-10L83,87.6c-2.8,2-6.3,3.1-10,3.1C63.2,90.7,55.3,82.7,55.3,73z M87.6,83
	L63,58.4c2.8-2,6.3-3.1,10-3.1c9.8,0,17.7,7.9,17.7,17.7C90.7,76.7,89.5,80.1,87.6,83z"/>
</svg>
