<?xml version="1.0" encoding="utf-8"?>
<!-- Generator: Adobe Illustrator 17.1.0, SVG Export Plug-In . SVG Version: 6.00 Build 0)  -->
<!DOCTYPE svg PUBLIC "-//W3C//DTD SVG 1.1//EN" "http://www.w3.org/Graphics/SVG/1.1/DTD/svg11.dtd">
<svg version="1.1" id="Layer_1" xmlns="http://www.w3.org/2000/svg" xmlns:xlink="http://www.w3.org/1999/xlink" x="0px" y="0px"
	 viewBox="0 0 34.9 34.9" enable-background="new 0 0 34.9 34.9" xml:space="preserve">
<path fill="#FFFFFF" d="M18.7,0v20.3h-2.5V0H0v34.9h17.4c-8.3,0-15-6.7-15-15c0-6.3,4-12,9.9-14.1l1.2-0.4l0,0.1V8h0l-0.3,0.1
	c-4.9,1.8-8.3,6.5-8.3,11.8c0,6.9,5.6,12.5,12.5,12.5c6.9,0,12.5-5.6,12.5-12.5c0-5.5-3.5-10.2-8.7-11.9l-0.5-0.1V5.4l0-0.1L22,5.6
	c6.2,2,10.4,7.7,10.4,14.3c0,8.3-6.7,15-15,15h17.4V0H18.7z"/>
</svg>
