<?xml version="1.0" encoding="utf-8"?>
<!-- Generator: Adobe Illustrator 17.1.0, SVG Export Plug-In . SVG Version: 6.00 Build 0)  -->
<!DOCTYPE svg PUBLIC "-//W3C//DTD SVG 1.1//EN" "http://www.w3.org/Graphics/SVG/1.1/DTD/svg11.dtd">
<svg version="1.1" id="Layer_1" xmlns="http://www.w3.org/2000/svg" xmlns:xlink="http://www.w3.org/1999/xlink" x="0px" y="0px"
	 viewBox="0 0 26.5 26.5" enable-background="new 0 0 26.5 26.5" xml:space="preserve">
<path fill="#545554" d="M26.2,11.4c-0.2-0.3-0.5-0.5-0.7-0.6c-0.7-0.2-1.4-0.4-2.1-0.5c-0.2-0.7-0.5-1.4-0.8-2
	c0.5-0.7,0.8-1.3,1-1.9c0.2-0.3,0.2-0.6,0.2-0.9c0-0.3-0.2-0.6-0.4-0.8l-1.5-1.6C21.6,3,21.4,2.8,21,2.8c-0.3-0.1-0.6,0-0.9,0.1
	C19.6,3.2,19,3.6,18.3,4c-0.2-0.1-0.5-0.2-0.9-0.4c-0.3-0.2-0.7-0.3-1.1-0.4c-0.2-0.9-0.5-1.6-0.6-2.1c-0.1-0.2-0.2-0.5-0.5-0.7
	c-0.3-0.2-0.6-0.3-0.9-0.3L12.1,0c-0.3,0.1-0.6,0.2-0.8,0.4c-0.3,0.2-0.5,0.4-0.5,0.7c-0.2,0.7-0.4,1.4-0.6,2.1
	C9.5,3.3,8.8,3.6,8.2,4C7.9,3.8,7.6,3.6,7.4,3.4c-0.3-0.2-0.7-0.3-1-0.6C6.1,2.8,5.8,2.7,5.5,2.7C5.1,2.8,4.9,2.9,4.7,3.2L3.1,4.7
	C2.9,4.9,2.8,5.2,2.8,5.5C2.6,5.9,2.7,6.1,2.9,6.4c0.3,0.6,0.6,1.2,1,1.8c-0.3,0.6-0.6,1.3-0.9,2c-0.6,0.1-1.3,0.3-2,0.5
	c-0.3,0.1-0.6,0.3-0.7,0.6C0.1,11.6,0,11.9,0,12.2v2.2c0,0.3,0.1,0.6,0.3,0.9c0.2,0.3,0.5,0.5,0.7,0.6c0.3,0.1,0.7,0.2,1.1,0.3
	c0.3,0.1,0.6,0.1,0.9,0.2c0.2,0.7,0.5,1.4,0.9,2c-0.4,0.6-0.7,1.2-1.1,1.8c-0.1,0.2-0.2,0.5-0.1,0.9c0,0.3,0.1,0.6,0.3,0.8l1.6,1.6
	c0.2,0.2,0.5,0.3,0.8,0.3h0.2c0.2,0,0.5-0.1,0.7-0.2c0.6-0.3,1.2-0.7,1.8-1c0.6,0.3,1.3,0.6,2,0.9c0.2,0.6,0.3,1.3,0.5,2
	c0.2,0.3,0.3,0.6,0.6,0.7c0.3,0.2,0.6,0.3,0.9,0.3h2.2c0.2,0,0.5-0.1,0.8-0.3c0.3-0.2,0.5-0.5,0.6-0.7c0.1-0.6,0.3-1.3,0.6-2
	c0.7-0.2,1.4-0.5,2-0.9c0.7,0.4,1.3,0.7,1.9,1c0.2,0.2,0.5,0.2,0.9,0.2c0.3-0.1,0.6-0.2,0.8-0.3l1.6-1.6c0.2-0.2,0.3-0.5,0.4-0.8
	c0.1-0.3,0-0.6-0.2-0.9c-0.2-0.5-0.6-1.1-1-1.8c0.3-0.6,0.6-1.3,0.8-2c0.9-0.2,1.5-0.4,2.1-0.6c0.2-0.1,0.5-0.3,0.7-0.5
	c0.2-0.3,0.3-0.6,0.3-0.9v-2.2C26.5,11.9,26.4,11.7,26.2,11.4z M13.2,20c-3.7,0-6.7-3-6.7-6.7c0-3.7,3-6.7,6.7-6.7
	c3.7,0,6.7,3,6.7,6.7C19.9,17,16.9,20,13.2,20z"/>
</svg>
