<?xml version="1.0" encoding="utf-8"?>
<!-- Generator: Adobe Illustrator 17.1.0, SVG Export Plug-In . SVG Version: 6.00 Build 0)  -->
<!DOCTYPE svg PUBLIC "-//W3C//DTD SVG 1.1//EN" "http://www.w3.org/Graphics/SVG/1.1/DTD/svg11.dtd">
<svg version="1.1" id="Layer_1" xmlns="http://www.w3.org/2000/svg" xmlns:xlink="http://www.w3.org/1999/xlink" x="0px" y="0px"
	 viewBox="0 0 31 31" enable-background="new 0 0 31 31" xml:space="preserve">
<circle fill="none" stroke="#D8D9DC" stroke-miterlimit="10" cx="15.5" cy="15.5" r="15"/>
<g>
	<path fill="#777677" d="M7.5,13.1h3.4l4.9-3.4v11.7l-4.9-3.4H7.5V13.1z"/>
	<path fill="#777677" d="M21.3,9.5c-0.2-0.2-0.4-0.2-0.6,0c-0.2,0.2-0.2,0.5,0,0.6c1.3,1.5,2,3.4,2,5.4c0,2-0.7,3.9-1.9,5.3
		c-0.2,0.2-0.1,0.5,0,0.6c0.1,0.1,0.2,0.1,0.3,0.1c0.1,0,0.3-0.1,0.3-0.2c1.4-1.7,2.2-3.8,2.2-5.9C23.5,13.3,22.7,11.2,21.3,9.5z"/>
	<path fill="#777677" d="M17.8,11.6c-0.2,0.2-0.2,0.5,0,0.6c0.8,0.9,1.3,2,1.3,3.2c0,1.2-0.4,2.3-1.2,3.2c-0.2,0.2-0.2,0.5,0,0.6
		c0.1,0.1,0.2,0.1,0.3,0.1c0.1,0,0.2,0,0.3-0.1c0.9-1,1.5-2.4,1.5-3.8c0-1.5-0.6-2.8-1.5-3.9C18.3,11.5,18,11.5,17.8,11.6z"/>
</g>
</svg>
