<?xml version="1.0" encoding="utf-8"?>
<!-- Generator: Adobe Illustrator 17.1.0, SVG Export Plug-In . SVG Version: 6.00 Build 0)  -->
<!DOCTYPE svg PUBLIC "-//W3C//DTD SVG 1.1//EN" "http://www.w3.org/Graphics/SVG/1.1/DTD/svg11.dtd">
<svg version="1.1" id="Layer_1" xmlns="http://www.w3.org/2000/svg" xmlns:xlink="http://www.w3.org/1999/xlink" x="0px" y="0px"
	 viewBox="0 0 48.5 48.5" enable-background="new 0 0 48.5 48.5" xml:space="preserve">
<path fill="#E78824" d="M24.3,0C10.9,0,0,10.9,0,24.3c0,13.4,10.9,24.3,24.3,24.3s24.3-10.9,24.3-24.3C48.5,10.9,37.7,0,24.3,0z
	 M6.6,24.3c0-3.7,1.1-7.1,3.1-10l24.6,24.6c-2.8,2-6.3,3.1-10,3.1C14.5,41.9,6.6,34,6.6,24.3z M38.9,34.3L14.3,9.7
	c2.8-2,6.3-3.1,10-3.1c9.8,0,17.7,7.9,17.7,17.7C41.9,28,40.8,31.4,38.9,34.3z"/>
</svg>
