<?xml version="1.0" encoding="utf-8"?>
<!-- Generator: Adobe Illustrator 17.1.0, SVG Export Plug-In . SVG Version: 6.00 Build 0)  -->
<!DOCTYPE svg PUBLIC "-//W3C//DTD SVG 1.1//EN" "http://www.w3.org/Graphics/SVG/1.1/DTD/svg11.dtd">
<svg version="1.1" id="Layer_1" xmlns="http://www.w3.org/2000/svg" xmlns:xlink="http://www.w3.org/1999/xlink" x="0px" y="0px"
	 viewBox="0 0 119.2 119.3" enable-background="new 0 0 119.2 119.3" xml:space="preserve">
<g>
	<g>
		<g>
			<path fill="#B11F24" d="M59.6,7.5c28.7,0,52.1,23.4,52.1,52.2c0,28.8-23.4,52.2-52.1,52.2S7.5,88.4,7.5,59.7
				C7.5,30.9,30.9,7.5,59.6,7.5 M59.6,2.5C28.1,2.5,2.5,28.1,2.5,59.7c0,31.6,25.6,57.2,57.1,57.2c31.6,0,57.1-25.6,57.1-57.2
				C116.7,28.1,91.2,2.5,59.6,2.5L59.6,2.5z"/>
		</g>
	</g>
</g>
<path fill="#B11F24" d="M83.2,41.4c0.2-0.3,0.1-1,0.1-1.3V25.2c0-0.6-0.5-1-1-1L43,34.1c-0.6,0-1,0.5-1,1v14.7V77
	c-2.5-0.9-5.7-0.9-8.9,0.2c-5.9,2.2-9.3,7.5-7.7,11.9c1.6,4.4,7.7,6.3,13.6,4.1c5-1.8,8.2-5.9,8.1-9.9c0,0,0,0,0,0V49.9l31-7.7v29.4
	c-2.5-0.9-5.7-0.9-8.9,0.2c-5.9,2.2-9.3,7.5-7.7,11.9c1.6,4.4,7.7,6.3,13.6,4.1c5-1.8,8.2-5.9,8.1-9.9c0,0,0,0,0,0V41.4z"/>
</svg>
