<?xml version="1.0" encoding="utf-8"?>
<!-- Generator: Adobe Illustrator 17.1.0, SVG Export Plug-In . SVG Version: 6.00 Build 0)  -->
<!DOCTYPE svg PUBLIC "-//W3C//DTD SVG 1.1//EN" "http://www.w3.org/Graphics/SVG/1.1/DTD/svg11.dtd">
<svg version="1.1" id="Layer_1" xmlns="http://www.w3.org/2000/svg" xmlns:xlink="http://www.w3.org/1999/xlink" x="0px" y="0px"
	 viewBox="0 0 118.2 118.3" enable-background="new 0 0 118.2 118.3" xml:space="preserve">
<g>
	<g>
		<g>
			<path fill="#7C7C7C" d="M59.1,6c29.3,0,53.1,23.8,53.1,53.2c0,29.3-23.8,53.2-53.1,53.2C29.8,112.3,6,88.5,6,59.2
				C6,29.8,29.8,6,59.1,6 M59.1,2C27.6,2,2,27.6,2,59.2c0,31.6,25.6,57.2,57.1,57.2c31.6,0,57.1-25.6,57.1-57.2
				C116.2,27.6,90.7,2,59.1,2L59.1,2z"/>
		</g>
	</g>
</g>
<path fill="#7C7C7C" d="M82.7,40.9c0.2-0.3,0.1-1,0.1-1.3V24.7c0-0.6-0.5-1-1-1l-39.2,10c-0.6,0-1,0.5-1,1v14.7v27.2
	c-2.5-0.9-5.7-0.9-8.9,0.2c-5.9,2.2-9.3,7.5-7.7,11.9c1.6,4.4,7.7,6.3,13.6,4.1c5-1.8,8.2-5.9,8.1-9.9c0,0,0,0,0,0V49.4l31-7.7V71
	c-2.5-0.9-5.7-0.9-8.9,0.2c-5.9,2.2-9.3,7.5-7.7,11.9c1.6,4.4,7.7,6.3,13.6,4.1c5-1.8,8.2-5.9,8.1-9.9c0,0,0,0,0,0V40.9z"/>
</svg>
