<?xml version="1.0" encoding="utf-8"?>
<!-- Generator: Adobe Illustrator 17.1.0, SVG Export Plug-In . SVG Version: 6.00 Build 0)  -->
<!DOCTYPE svg PUBLIC "-//W3C//DTD SVG 1.1//EN" "http://www.w3.org/Graphics/SVG/1.1/DTD/svg11.dtd">
<svg version="1.1" id="Layer_1" xmlns="http://www.w3.org/2000/svg" xmlns:xlink="http://www.w3.org/1999/xlink" x="0px" y="0px"
	 viewBox="0 0 160.3 123.8" enable-background="new 0 0 160.3 123.8" xml:space="preserve">
<g id="Shape_96_2_">
	<g>
		<path fill="#165F96" d="M49.5,46.3c-13.6,0-24.6,11-24.6,24.6c0,13.6,11,24.6,24.6,24.6C63,95.4,74,84.4,74,70.9
			C74,57.3,63,46.3,49.5,46.3z"/>
	</g>
</g>
<path fill="none" stroke="#165F96" stroke-width="5.59" stroke-miterlimit="10" d="M136.1,20.4h-8.9h-14.5h-23H42.9H28.4h-1.3h-2.9
	C12.4,20.4,2.8,30,2.8,41.8v57.8c0,11.8,9.6,21.4,21.4,21.4h111.9c11.8,0,21.4-9.6,21.4-21.4V41.8C157.5,30,147.9,20.4,136.1,20.4z"
	/>
<path fill="#165F96" d="M74.3,0v17.9c0,0.2,0.1,0.4,0.1,0.6h23.3c0-0.2,0.1-0.4,0.1-0.6V0"/>
<path fill="#165F96" d="M107.3,0v17.9c0,0.2,0.1,0.4,0.1,0.6h23.3c0-0.2,0.1-0.4,0.1-0.6V0"/>
<path fill="#165F96" d="M29.9,0v17.9c0,0.2,0.1,0.4,0.1,0.6h18.6c0-0.2,0.1-0.4,0.1-0.6V0"/>
</svg>
