<?xml version="1.0" encoding="utf-8"?>
<!-- Generator: Adobe Illustrator 17.1.0, SVG Export Plug-In . SVG Version: 6.00 Build 0)  -->
<!DOCTYPE svg PUBLIC "-//W3C//DTD SVG 1.1//EN" "http://www.w3.org/Graphics/SVG/1.1/DTD/svg11.dtd">
<svg version="1.1" id="Layer_1" xmlns="http://www.w3.org/2000/svg" xmlns:xlink="http://www.w3.org/1999/xlink" x="0px" y="0px"
	 viewBox="0 0 27.1 20.9" enable-background="new 0 0 27.1 20.9" xml:space="preserve">
<g id="Shape_96_4_">
	<g>
		<path fill="#165F96" d="M8.4,7.8c-2.3,0-4.2,1.9-4.2,4.2c0,2.3,1.9,4.2,4.2,4.2c2.3,0,4.2-1.9,4.2-4.2C12.5,9.7,10.6,7.8,8.4,7.8z
			"/>
	</g>
</g>
<path fill="none" stroke="#165F96" stroke-width="0.944" stroke-miterlimit="10" d="M23,3.5h-1.5H19h-3.9H7.2H4.8H4.6H4.1
	c-2,0-3.6,1.6-3.6,3.6v9.8c0,2,1.6,3.6,3.6,3.6H23c2,0,3.6-1.6,3.6-3.6V7.1C26.6,5.1,25,3.5,23,3.5z"/>
<path fill="#165F96" d="M12.6,0v3c0,0,0,0.1,0,0.1h3.9c0,0,0-0.1,0-0.1V0"/>
<path fill="#165F96" d="M18.1,0v3c0,0,0,0.1,0,0.1h3.9c0,0,0-0.1,0-0.1V0"/>
<path fill="#165F96" d="M5,0v3c0,0,0,0.1,0,0.1h3.1c0,0,0-0.1,0-0.1V0"/>
</svg>
