<?xml version="1.0" encoding="utf-8"?>
<!-- Generator: Adobe Illustrator 17.1.0, SVG Export Plug-In . SVG Version: 6.00 Build 0)  -->
<!DOCTYPE svg PUBLIC "-//W3C//DTD SVG 1.1//EN" "http://www.w3.org/Graphics/SVG/1.1/DTD/svg11.dtd">
<svg version="1.1" id="Layer_1" xmlns="http://www.w3.org/2000/svg" xmlns:xlink="http://www.w3.org/1999/xlink" x="0px" y="0px"
	 viewBox="0 0 24.1 24.1" enable-background="new 0 0 24.1 24.1" xml:space="preserve">
<g>
	<path fill="#4F4F4F" d="M12.1,0C5.4,0,0,5.4,0,12.1c0,6.7,5.4,12.1,12.1,12.1s12.1-5.4,12.1-12.1C24.1,5.4,18.7,0,12.1,0z
		 M12.1,18.1c-3.3,0-6-2.7-6-6c0-3.3,2.7-6,6-6c3.3,0,6,2.7,6,6C18.1,15.4,15.4,18.1,12.1,18.1z"/>
	<path fill="#4F4F4F" d="M12.1,7.9c-2.3,0-4.1,1.9-4.1,4.1c0,2.3,1.9,4.1,4.1,4.1s4.1-1.9,4.1-4.1C16.2,9.8,14.4,7.9,12.1,7.9z
		 M12.1,13.5c-0.8,0-1.4-0.6-1.4-1.4c0-0.8,0.6-1.4,1.4-1.4s1.4,0.6,1.4,1.4C13.5,12.9,12.9,13.5,12.1,13.5z"/>
</g>
</svg>
