<?xml version="1.0" encoding="utf-8"?>
<!-- Generator: Adobe Illustrator 17.1.0, SVG Export Plug-In . SVG Version: 6.00 Build 0)  -->
<!DOCTYPE svg PUBLIC "-//W3C//DTD SVG 1.1//EN" "http://www.w3.org/Graphics/SVG/1.1/DTD/svg11.dtd">
<svg version="1.1" id="Layer_1" xmlns="http://www.w3.org/2000/svg" xmlns:xlink="http://www.w3.org/1999/xlink" x="0px" y="0px"
	 viewBox="0 0 43.4 33.3" enable-background="new 0 0 43.4 33.3" xml:space="preserve">
<g>
	<path d="M0,10.1h9.2l13.2-9.2v31.6L9.2,23.3H0V10.1z"/>
	<path d="M37.3,0.4c-0.4-0.5-1.2-0.6-1.7-0.1c-0.5,0.5-0.6,1.2-0.1,1.8C39,6.1,41,11.3,41,16.8c0,5.3-1.9,10.5-5.3,14.5
		c-0.4,0.5-0.4,1.3,0.1,1.8c0.2,0.2,0.5,0.3,0.8,0.3c0.3,0,0.7-0.1,0.9-0.4c3.8-4.5,5.9-10.2,5.9-16.1C43.4,10.7,41.3,4.9,37.3,0.4z
		"/>
	<path d="M28,6.2c-0.5,0.5-0.5,1.3,0,1.8c2.3,2.4,3.5,5.5,3.5,8.8c0,3.2-1.2,6.3-3.3,8.6c-0.5,0.5-0.4,1.3,0.1,1.8
		c0.2,0.2,0.5,0.3,0.8,0.3c0.3,0,0.7-0.1,0.9-0.4c2.6-2.8,4-6.5,4-10.3c0-4-1.5-7.7-4.2-10.5C29.3,5.7,28.5,5.7,28,6.2z"/>
</g>
</svg>
